solid Visualization Toolkit generated SLA File
 facet normal -0.24970721381527589 0.33513890146922171 0.90847576967721899
  outer loop
   vertex 29.226991653442383 18.707151412963867 44.539493560791016
   vertex 46.159988403320313 16.62591552734375 49.961536407470703
   vertex 36.518943786621094 26.357402801513672 43.721591949462891
  endloop
 endfacet
 facet normal 0.58663368724476539 -0.68023535676350588 -0.43947784517360672
  outer loop
   vertex 46.750907897949219 -33.683292388916016 10.309029579162598
   vertex 55.259841918945313 -29.120697021484375 14.605010986328125
   vertex 55.135765075683594 -33.818977355957031 21.711509704589844
  endloop
 endfacet
 facet normal -0.58970374220172328 0.0224009437139773 0.80730892114109987
  outer loop
   vertex 31.117164611816406 26.499443054199219 112.43421173095703
   vertex 23.36201286315918 20.396402359008789 106.93875885009766
   vertex 29.542869567871094 11.76572322845459 111.69308471679688
  endloop
 endfacet
 facet normal -0.11968003821556791 -0.77974211952957961 0.61455586848083954
  outer loop
   vertex 13.977300643920898 -17.521718978881836 65.433876037597656
   vertex 12.460420608520508 -27.63136100769043 52.311466217041016
   vertex 27.161108016967773 -20.210508346557617 64.589813232421875
  endloop
 endfacet
 facet normal 0.0098443033365532891 0.95510026927684566 -0.29611917418349454
  outer loop
   vertex 29.226991653442383 18.707151412963867 44.539493560791016
   vertex 21.050880432128906 14.74404239654541 31.485105514526367
   vertex 5.5918617248535156 20.200201034545898 48.569427490234375
  endloop
 endfacet
 facet normal 0.34220431600999374 0.93746498507976006 -0.063683654524042038
  outer loop
   vertex 56.676582336425781 18.933500289916992 42.754032135009766
   vertex 63.935928344726563 15.736154556274414 34.695133209228516
   vertex 36.518943786621094 26.357402801513672 43.721591949462891
  endloop
 endfacet
 facet normal -0.8860864329888376 -0.092887062880234711 -0.45411763544548844
  outer loop
   vertex -19.512016296386719 -24.397981643676758 57.556541442871094
   vertex -22.721935272216797 -26.361108779907227 64.221366882324219
   vertex -22.557022094726563 -7.8638768196105957 60.116085052490234
  endloop
 endfacet
 facet normal 0.78809847017161527 0.45536125340617994 -0.41418224275011173
  outer loop
   vertex 63.092521667480469 13.910298347473145 22.043006896972656
   vertex 74.103683471679688 -2.4333400726318359 25.026283264160156
   vertex 65.3927001953125 1.6851133108139038 12.97910213470459
  endloop
 endfacet
 facet normal -0.173165791821183 0.98362886223402046 -0.049878551734677791
  outer loop
   vertex 8.3803796768188477 43.984310150146484 107.66382598876953
   vertex 18.309347152709961 45.19732666015625 97.114212036132813
   vertex 6.2760767936706543 42.754451751708984 90.716041564941406
  endloop
 endfacet
 facet normal 0.28597408863041673 0.87417889812799221 -0.39246665425196564
  outer loop
   vertex 56.439388275146484 12.568313598632813 14.206013679504395
   vertex 49.960498809814453 21.494258880615234 29.366737365722656
   vertex 63.092521667480469 13.910298347473145 22.043006896972656
  endloop
 endfacet
 facet normal -0.98085051474073226 0.13986765249430969 -0.13553341845674705
  outer loop
   vertex 7.3731212615966797 -20.273105621337891 19.886049270629883
   vertex 10.061195373535156 -10.791481971740723 10.217390060424805
   vertex 7.3378453254699707 -24.842544555664063 15.425774574279785
  endloop
 endfacet
 facet normal 0.17641241720525758 0.94463420703929124 -0.27666744287510159
  outer loop
   vertex 49.960498809814453 21.494258880615234 29.366737365722656
   vertex 38.374301910400391 19.974197387695313 16.788997650146484
   vertex 28.565017700195313 26.427288055419922 32.567256927490234
  endloop
 endfacet
 facet normal -0.13296104600385567 -0.78073659996038491 0.61055034331974489
  outer loop
   vertex -1.8148607015609741 -7.4848670959472656 11.859420776367188
   vertex -0.45687121152877808 -12.881787300109863 5.253882884979248
   vertex 10.061195373535156 -10.791481971740723 10.217390060424805
  endloop
 endfacet
 facet normal -0.26642128163335677 0.50407078498407754 0.82154266135020382
  outer loop
   vertex 10.393107414245605 6.1247873306274414 14.842429161071777
   vertex 31.86298942565918 17.091348648071289 15.07627010345459
   vertex 13.467395782470703 17.502567291259766 8.8583812713623047
  endloop
 endfacet
 facet normal 0.45560264919841165 0.83282959726733863 0.31435821598760805
  outer loop
   vertex 4.8045716285705566 10.327667236328125 78.9310302734375
   vertex 9.6576147079467773 7.2935247421264648 79.935821533203125
   vertex 11.322731971740723 10.695371627807617 68.510032653808594
  endloop
 endfacet
 facet normal 0.97492740831092617 -0.15222429580593624 0.16230931054787856
  outer loop
   vertex 82.996772766113281 -9.7580680847167969 31.685159683227539
   vertex 82.011825561523438 -22.448846817016602 25.699102401733398
   vertex 84.232940673828125 -10.809188842773438 23.274181365966797
  endloop
 endfacet
 facet normal 0.18393380184350119 0.94179668382791015 0.28140249265091327
  outer loop
   vertex 16.219772338867188 41.004177093505859 112.51364135742188
   vertex 18.309347152709961 45.19732666015625 97.114212036132813
   vertex 8.3803796768188477 43.984310150146484 107.66382598876953
  endloop
 endfacet
 facet normal 0.98036233490821056 0.18354216110443938 -0.072124665617483208
  outer loop
   vertex 4.8045716285705566 10.327667236328125 78.9310302734375
   vertex 3.3307161331176758 19.617216110229492 82.537445068359375
   vertex 4.8043050765991211 14.353054046630859 89.171173095703125
  endloop
 endfacet
 facet normal -0.90259508318317072 0.38119855656391638 -0.2000244392246904
  outer loop
   vertex -23.889854431152344 -7.0286788940429688 67.722076416015625
   vertex -17.016324996948242 6.6310520172119141 62.737964630126953
   vertex -22.557022094726563 -7.8638768196105957 60.116085052490234
  endloop
 endfacet
 facet normal 0.19521426382398663 -0.87338675044603153 0.4461916352252473
  outer loop
   vertex 10.39754581451416 -3.8880867958068848 89.709541320800781
   vertex 22.616880416870117 2.458946704864502 96.787277221679688
   vertex 7.0519533157348633 -3.029979944229126 92.852958679199219
  endloop
 endfacet
 facet normal -0.21468727816712924 -0.81695962214123619 0.53524419509606858
  outer loop
   vertex 19.874364852905273 -37.050163269042969 7.2253193855285645
   vertex 31.452627182006836 -34.743919372558594 15.389469146728516
   vertex 17.847951889038086 -29.947572708129883 17.253423690795898
  endloop
 endfacet
 facet normal -0.026230711392957608 0.75605406228425776 -0.65398333670154862
  outer loop
   vertex 28.902402877807617 20.60258674621582 94.550209045410156
   vertex 36.363208770751953 19.849845886230469 93.3807373046875
   vertex 9.6576147079467773 7.2935247421264648 79.935821533203125
  endloop
 endfacet
 facet normal 0.34847206041629319 0.93447770966134847 0.072928960333352999
  outer loop
   vertex 59.223037719726563 11.886848449707031 63.991157531738281
   vertex 68.242118835449219 9.4947519302368164 51.547035217285156
   vertex 57.814292907714844 13.204912185668945 53.833423614501953
  endloop
 endfacet
 facet normal 0.70180865526124381 -0.7014694802167365 -0.12411760441156718
  outer loop
   vertex 77.160118103027344 -20.248390197753906 40.035560607910156
   vertex 64.277557373046875 -29.077144622802734 17.089654922485352
   vertex 75.235496520996094 -20.461643218994141 30.358242034912109
  endloop
 endfacet
 facet normal 0.95111001559752084 0.26676165112553557 -0.15565333185917357
  outer loop
   vertex 38.195709228515625 23.468212127685547 110.77934265136719
   vertex 36.363208770751953 19.849845886230469 93.3807373046875
   vertex 35.363231658935547 30.643520355224609 105.76884460449219
  endloop
 endfacet
 facet normal 0.43107197820013188 -0.41208782622241197 0.80272073169310409
  outer loop
   vertex 75.235496520996094 -20.461643218994141 30.358242034912109
   vertex 82.011825561523438 -22.448846817016602 25.699102401733398
   vertex 82.996772766113281 -9.7580680847167969 31.685159683227539
  endloop
 endfacet
 facet normal 0.46852851368410153 -0.8453678079311352 0.25658195801473277
  outer loop
   vertex 55.15216064453125 -35.401313781738281 50.349212646484375
   vertex 71.847755432128906 -25.795000076293945 51.512607574462891
   vertex 62.428028106689453 -28.382291793823242 60.188968658447266
  endloop
 endfacet
 facet normal 0.99857267616837464 0.013122229205297339 0.051772748725696628
  outer loop
   vertex 76.141288757324219 -2.2162666320800781 55.115955352783203
   vertex 77.160118103027344 -20.248390197753906 40.035560607910156
   vertex 77.443840026855469 -9.2925186157226563 31.786386489868164
  endloop
 endfacet
 facet normal -0.87739176864135826 -0.47222940646462197 0.08475300579011856
  outer loop
   vertex -20.511680603027344 -9.2145481109619141 46.441719055175781
   vertex -15.619653701782227 -19.234952926635742 41.253635406494141
   vertex -15.295059204101563 -17.339925765991211 55.172718048095703
  endloop
 endfacet
 facet normal 0.30397420363418476 0.17952679101876146 0.93561200015362633
  outer loop
   vertex 48.751998901367188 -10.750253677368164 75.2489013671875
   vertex 63.769542694091797 -6.0743117332458496 69.472572326660156
   vertex 50.795669555664063 1.5084975957870483 72.232696533203125
  endloop
 endfacet
 facet normal -0.87742160037569605 -0.12933613771500665 -0.46195616531778988
  outer loop
   vertex -16.08183479309082 1.1827890872955322 36.272312164306641
   vertex -7.1356124877929688 -15.087037086486816 23.835348129272461
   vertex -10.10804557800293 -20.983579635620117 31.131956100463867
  endloop
 endfacet
 facet normal 0.70160864756982966 0.59344145387979685 0.39442685820347939
  outer loop
   vertex 59.223037719726563 11.886848449707031 63.991157531738281
   vertex 76.141288757324219 -2.2162666320800781 55.115955352783203
   vertex 68.242118835449219 9.4947519302368164 51.547035217285156
  endloop
 endfacet
 facet normal 0.86883018812503454 0.48049773428625547 0.1193986245665838
  outer loop
   vertex 13.184770584106445 0.51076304912567139 81.565673828125
   vertex 16.881767272949219 -3.6746792793273926 71.507209777832031
   vertex 9.6576147079467773 7.2935247421264648 79.935821533203125
  endloop
 endfacet
 facet normal -0.886001735553684 0.42451473430777842 -0.18651585710457949
  outer loop
   vertex -7.0963082313537598 11.379348754882813 82.828041076660156
   vertex 6.2760767936706543 42.754451751708984 90.716041564941406
   vertex 4.5982027053833008 36.358455657958984 84.128959655761719
  endloop
 endfacet
 facet normal -0.46557710500919336 0.61207488716039471 -0.6392200652348522
  outer loop
   vertex -17.36277961730957 -2.177473783493042 54.555843353271484
   vertex -17.016324996948242 6.6310520172119141 62.737964630126953
   vertex -5.4625592231750488 11.136493682861328 58.636871337890625
  endloop
 endfacet
 facet normal -0.43310258968550325 0.85269525620995856 0.29211803580871859
  outer loop
   vertex 5.5918617248535156 20.200201034545898 48.569427490234375
   vertex -8.1924896240234375 14.455392837524414 44.901500701904297
   vertex -5.4625592231750488 11.136493682861328 58.636871337890625
  endloop
 endfacet
 facet normal 0.23017497251983146 0.38370963819842496 -0.89430777452682841
  outer loop
   vertex 3.3307161331176758 19.617216110229492 82.537445068359375
   vertex 4.8045716285705566 10.327667236328125 78.9310302734375
   vertex -2.5648505687713623 12.45848274230957 77.94854736328125
  endloop
 endfacet
 facet normal -0.27761766333436133 0.55072851615580776 0.78716360084647674
  outer loop
   vertex 1.8803677558898926 37.066368103027344 110.21144104003906
   vertex 16.219772338867188 41.004177093505859 112.51364135742188
   vertex 8.3803796768188477 43.984310150146484 107.66382598876953
  endloop
 endfacet
 facet normal -0.50597668367020621 -0.48220714927466607 0.71516701599731236
  outer loop
   vertex -2.5820510387420654 3.2919635772705078 90.299575805664063
   vertex 7.0519533157348633 -3.029979944229126 92.852958679199219
   vertex 9.6796998977661133 4.9975509643554688 100.12470245361328
  endloop
 endfacet
 facet normal -0.057313982872420878 0.29756072783143966 0.95298096550756128
  outer loop
   vertex -4.2053709030151367 -8.0403270721435547 93.740364074707031
   vertex 7.0519533157348633 -3.029979944229126 92.852958679199219
   vertex -2.5820510387420654 3.2919635772705078 90.299575805664063
  endloop
 endfacet
 facet normal -0.15161832576535039 0.19999784091615941 0.96799418744173604
  outer loop
   vertex 4.8043050765991211 14.353054046630859 89.171173095703125
   vertex -2.5820510387420654 3.2919635772705078 90.299575805664063
   vertex 6.3861947059631348 8.4257755279541016 90.643585205078125
  endloop
 endfacet
 facet normal -0.39843687453641619 -0.10290712029732578 0.91140451041333104
  outer loop
   vertex -21.593698501586914 -5.9087843894958496 86.379417419433594
   vertex -14.117410659790039 -16.906991958618164 88.405998229980469
   vertex -4.2053709030151367 -8.0403270721435547 93.740364074707031
  endloop
 endfacet
 facet normal -0.91902151580926505 0.011529199663542308 0.39403874306311387
  outer loop
   vertex -23.889854431152344 -7.0286788940429688 67.722076416015625
   vertex -20.018257141113281 -24.491413116455078 77.262794494628906
   vertex -19.341691970825195 -1.290739893913269 78.16192626953125
  endloop
 endfacet
 facet normal 0.97970309332286054 0.20036206720476113 -0.0060737928062734236
  outer loop
   vertex 76.141288757324219 -2.2162666320800781 55.115955352783203
   vertex 77.443840026855469 -9.2925186157226563 31.786386489868164
   vertex 74.177459716796875 6.9717121124267578 41.442955017089844
  endloop
 endfacet
 facet normal -0.07604513616979823 -0.49492888428167242 0.86559952447342281
  outer loop
   vertex 3.6304152011871338 -19.401826858520508 88.538703918457031
   vertex -14.117410659790039 -16.906991958618164 88.405998229980469
   vertex -6.7720952033996582 -27.367221832275391 83.070396423339844
  endloop
 endfacet
 facet normal 0.58766361871059924 0.55032058107034354 -0.59312623386119323
  outer loop
   vertex 63.092521667480469 13.910298347473145 22.043006896972656
   vertex 65.3927001953125 1.6851133108139038 12.97910213470459
   vertex 56.439388275146484 12.568313598632813 14.206013679504395
  endloop
 endfacet
 facet normal -0.61296755198476327 0.65328164358490692 -0.44440282893880084
  outer loop
   vertex -16.08183479309082 1.1827890872955322 36.272312164306641
   vertex -8.1924896240234375 14.455392837524414 44.901500701904297
   vertex -7.5535421371459961 1.5064057111740112 24.984909057617188
  endloop
 endfacet
 facet normal -0.25731433626767464 0.84149379185149986 0.47505529217819553
  outer loop
   vertex 11.322731971740723 10.695371627807617 68.510032653808594
   vertex 5.5918617248535156 20.200201034545898 48.569427490234375
   vertex -5.4625592231750488 11.136493682861328 58.636871337890625
  endloop
 endfacet
 facet normal -0.69050759022618946 -0.70993497011437123 -0.13853377223163935
  outer loop
   vertex 16.296308517456055 -30.711380004882813 28.901666641235352
   vertex 7.3731212615966797 -20.273105621337891 19.886049270629883
   vertex 17.847951889038086 -29.947572708129883 17.253423690795898
  endloop
 endfacet
 facet normal -0.94031604797700641 0.31791668290537117 0.12138662466412774
  outer loop
   vertex 8.9051332473754883 5.376802921295166 5.2749066352844238
   vertex 10.393107414245605 6.1247873306274414 14.842429161071777
   vertex 13.467395782470703 17.502567291259766 8.8583812713623047
  endloop
 endfacet
 facet normal 0.0009193882965683011 -0.0018316485854744558 -0.99999789989210452
  outer loop
   vertex 54.831985473632813 12.990793228149414 5.3518710136413574
   vertex 54.923351287841797 -0.26499336957931519 5.3762350082397461
   vertex 22.39579963684082 18.550373077392578 5.311866283416748
  endloop
 endfacet
 facet normal -0.91666117862470209 0.399559031356364 0.0092121693393190981
  outer loop
   vertex -17.36277961730957 -2.177473783493042 54.555843353271484
   vertex -16.08183479309082 1.1827890872955322 36.272312164306641
   vertex -20.511680603027344 -9.2145481109619141 46.441719055175781
  endloop
 endfacet
 facet normal 0.3895834299020931 0.35762897952980022 0.84872036864104694
  outer loop
   vertex 50.795669555664063 1.5084975957870483 72.232696533203125
   vertex 63.769542694091797 -6.0743117332458496 69.472572326660156
   vertex 59.223037719726563 11.886848449707031 63.991157531738281
  endloop
 endfacet
 facet normal -0.42257120961474381 -0.62938848721046181 0.6521531300021941
  outer loop
   vertex -6.7720952033996582 -27.367221832275391 83.070396423339844
   vertex -14.117410659790039 -16.906991958618164 88.405998229980469
   vertex -20.018257141113281 -24.491413116455078 77.262794494628906
  endloop
 endfacet
 facet normal -0.35814101556972022 -0.20813669845341934 0.91017258128532963
  outer loop
   vertex 47.880558013916016 -23.292018890380859 72.037971496582031
   vertex 48.751998901367188 -10.750253677368164 75.2489013671875
   vertex 27.161108016967773 -20.210508346557617 64.589813232421875
  endloop
 endfacet
 facet normal 0.96752773178751583 0.23525052622360892 -0.092451490705234715
  outer loop
   vertex 6.3861947059631348 8.4257755279541016 90.643585205078125
   vertex 4.8045716285705566 10.327667236328125 78.9310302734375
   vertex 4.8043050765991211 14.353054046630859 89.171173095703125
  endloop
 endfacet
 facet normal 0.23099732458574931 -0.75844424405193789 0.60942806359627921
  outer loop
   vertex 42.551219940185547 -31.091361999511719 64.351577758789063
   vertex 62.428028106689453 -28.382291793823242 60.188968658447266
   vertex 47.880558013916016 -23.292018890380859 72.037971496582031
  endloop
 endfacet
 facet normal 0.00077152614043262595 -0.0020872678284234898 -0.99999752402714837
  outer loop
   vertex 22.39579963684082 18.550373077392578 5.311866283416748
   vertex 54.923351287841797 -0.26499336957931519 5.3762350082397461
   vertex -6.452786922454834 -22.764629364013672 5.3758444786071777
  endloop
 endfacet
 facet normal -0.67242554584147141 0.70947637850741485 0.21091978010561935
  outer loop
   vertex 8.3803796768188477 43.984310150146484 107.66382598876953
   vertex -4.4621658325195313 33.056182861328125 103.48020935058594
   vertex 1.8803677558898926 37.066368103027344 110.21144104003906
  endloop
 endfacet
 facet normal 0.082631725254268013 0.98913157225768322 0.12161714823390207
  outer loop
   vertex 32.650836944580078 16.574064254760742 59.561927795410156
   vertex 46.159988403320313 16.62591552734375 49.961536407470703
   vertex 29.226991653442383 18.707151412963867 44.539493560791016
  endloop
 endfacet
 facet normal -0.47739189994346987 0.85747979356728921 -0.19189939419436247
  outer loop
   vertex 21.050880432128906 14.74404239654541 31.485105514526367
   vertex 31.86298942565918 17.091348648071289 15.07627010345459
   vertex 6.2392578125 4.2788047790527344 21.569591522216797
  endloop
 endfacet
 facet normal -0.64278201478899699 -0.7342029688699202 0.21858014998254693
  outer loop
   vertex -4.7117795944213867 -24.598978042602539 55.313018798828125
   vertex -15.619653701782227 -19.234952926635742 41.253635406494141
   vertex -1.6933287382125854 -30.414913177490234 44.653903961181641
  endloop
 endfacet
 facet normal -0.43309856883830639 0.8729092606423523 -0.22462202108215595
  outer loop
   vertex 6.3861947059631348 8.4257755279541016 90.643585205078125
   vertex 28.902402877807617 20.60258674621582 94.550209045410156
   vertex 9.6576147079467773 7.2935247421264648 79.935821533203125
  endloop
 endfacet
 facet normal 0.70491409259744142 -0.5736784154643354 -0.41712012381070179
  outer loop
   vertex 74.377952575683594 -16.983009338378906 5.2808651924133301
   vertex 82.011825561523438 -22.448846817016602 25.699102401733398
   vertex 67.265983581542969 -25.761890411376953 5.3358311653137207
  endloop
 endfacet
 facet normal 0.6534511590505715 0.36738823676189902 0.66183643464563624
  outer loop
   vertex 76.141288757324219 -2.2162666320800781 55.115955352783203
   vertex 59.223037719726563 11.886848449707031 63.991157531738281
   vertex 63.769542694091797 -6.0743117332458496 69.472572326660156
  endloop
 endfacet
 facet normal 0.38351102822969618 0.83584380733016106 0.39279055611613406
  outer loop
   vertex 57.814292907714844 13.204912185668945 53.833423614501953
   vertex 68.242118835449219 9.4947519302368164 51.547035217285156
   vertex 56.676582336425781 18.933500289916992 42.754032135009766
  endloop
 endfacet
 facet normal -0.18719569244489276 0.097109241788517611 -0.9775109042304011
  outer loop
   vertex -5.4340925216674805 1.4483219385147095 7.6306343078613281
   vertex 8.9051332473754883 5.376802921295166 5.2749066352844238
   vertex -0.45687121152877808 -12.881787300109863 5.253882884979248
  endloop
 endfacet
 facet normal -0.04110477678991345 0.98158985097514018 0.18652549902802373
  outer loop
   vertex 22.39579963684082 18.550373077392578 5.311866283416748
   vertex 13.467395782470703 17.502567291259766 8.8583812713623047
   vertex 31.86298942565918 17.091348648071289 15.07627010345459
  endloop
 endfacet
 facet normal 0.98395120850522477 0.0064541543332403729 -0.17832095550705851
  outer loop
   vertex 54.831985473632813 12.990793228149414 5.3518710136413574
   vertex 56.439388275146484 12.568313598632813 14.206013679504395
   vertex 54.923351287841797 -0.26499336957931519 5.3762350082397461
  endloop
 endfacet
 facet normal -0.35631080732681963 -0.52095661457322318 0.77565895489868231
  outer loop
   vertex 42.551219940185547 -31.091361999511719 64.351577758789063
   vertex 47.880558013916016 -23.292018890380859 72.037971496582031
   vertex 27.161108016967773 -20.210508346557617 64.589813232421875
  endloop
 endfacet
 facet normal 0.75926906424047536 -0.013628473119038186 0.65063411592679088
  outer loop
   vertex 76.141288757324219 -2.2162666320800781 55.115955352783203
   vertex 63.769542694091797 -6.0743117332458496 69.472572326660156
   vertex 67.756690979003906 -19.785345077514648 64.532501220703125
  endloop
 endfacet
 facet normal 0.36620213172328198 -0.92626949348373844 -0.088999012144531445
  outer loop
   vertex 42.713348388671875 -41.427631378173828 30.459379196166992
   vertex 62.885677337646484 -34.117687225341797 37.382732391357422
   vertex 49.207832336425781 -39.966232299804688 41.972366333007813
  endloop
 endfacet
 facet normal -0.075964927212830727 -0.99346335934598373 0.085204949800712873
  outer loop
   vertex 27.724054336547852 -39.776821136474609 41.868995666503906
   vertex 31.180925369262695 -41.306591033935547 27.114343643188477
   vertex 39.498386383056641 -40.304122924804688 46.218288421630859
  endloop
 endfacet
 facet normal -0.62271562901926014 0.64145412221178233 0.44806456507144038
  outer loop
   vertex 36.518943786621094 26.357402801513672 43.721591949462891
   vertex 28.565017700195313 26.427288055419922 32.567256927490234
   vertex 29.226991653442383 18.707151412963867 44.539493560791016
  endloop
 endfacet
 facet normal -0.86775908856707995 0.49605608517103239 0.030373089635734353
  outer loop
   vertex -17.36277961730957 -2.177473783493042 54.555843353271484
   vertex -8.1924896240234375 14.455392837524414 44.901500701904297
   vertex -16.08183479309082 1.1827890872955322 36.272312164306641
  endloop
 endfacet
 facet normal -0.24098771268770539 0.83659132843309103 -0.49197547858008517
  outer loop
   vertex 31.86298942565918 17.091348648071289 15.07627010345459
   vertex 28.565017700195313 26.427288055419922 32.567256927490234
   vertex 38.374301910400391 19.974197387695313 16.788997650146484
  endloop
 endfacet
 facet normal -0.15761999058343854 0.26063116845263501 0.95248482014124036
  outer loop
   vertex 29.236949920654297 1.3722803592681885 68.702369689941406
   vertex 48.751998901367188 -10.750253677368164 75.2489013671875
   vertex 50.795669555664063 1.5084975957870483 72.232696533203125
  endloop
 endfacet
 facet normal -0.8934363914100677 -0.10406107021358581 0.43696991677935887
  outer loop
   vertex -20.511680603027344 -9.2145481109619141 46.441719055175781
   vertex -15.295059204101563 -17.339925765991211 55.172718048095703
   vertex -17.36277961730957 -2.177473783493042 54.555843353271484
  endloop
 endfacet
 facet normal -0.746177683378354 0.51857738157215605 -0.41748816049066512
  outer loop
   vertex 28.565017700195313 26.427288055419922 32.567256927490234
   vertex 31.86298942565918 17.091348648071289 15.07627010345459
   vertex 21.050880432128906 14.74404239654541 31.485105514526367
  endloop
 endfacet
 facet normal 0.42130704597254875 0.6251285787600821 0.65704994713589648
  outer loop
   vertex 31.117164611816406 26.499443054199219 112.43421173095703
   vertex 38.195709228515625 23.468212127685547 110.77934265136719
   vertex 35.363231658935547 30.643520355224609 105.76884460449219
  endloop
 endfacet
 facet normal -0.37906574554151634 0.39054376262209262 -0.83891878631607297
  outer loop
   vertex 13.467395782470703 17.502567291259766 8.8583812713623047
   vertex 22.39579963684082 18.550373077392578 5.311866283416748
   vertex 8.9051332473754883 5.376802921295166 5.2749066352844238
  endloop
 endfacet
 facet normal -0.76252147909928092 0.63043115878979861 0.14531878040775284
  outer loop
   vertex -9.3165512084960938 8.5891532897949219 87.904594421386719
   vertex -19.341691970825195 -1.290739893913269 78.16192626953125
   vertex -21.593698501586914 -5.9087843894958496 86.379417419433594
  endloop
 endfacet
 facet normal -0.58096396441188014 -0.38351895546263692 0.71790952275038078
  outer loop
   vertex 1.3716708421707153 -29.638381958007813 8.0356693267822266
   vertex 7.3378453254699707 -24.842544555664063 15.425774574279785
   vertex -6.452786922454834 -22.764629364013672 5.3758444786071777
  endloop
 endfacet
 facet normal -0.90442206711875694 0.38492884960998314 -0.18398506799892742
  outer loop
   vertex -4.2459316253662109 23.64100456237793 94.469863891601563
   vertex -7.0963082313537598 11.379348754882813 82.828041076660156
   vertex -9.3165512084960938 8.5891532897949219 87.904594421386719
  endloop
 endfacet
 facet normal -0.97930700241077662 0.052131662538790299 0.19555072178378974
  outer loop
   vertex -22.721935272216797 -26.361108779907227 64.221366882324219
   vertex -20.018257141113281 -24.491413116455078 77.262794494628906
   vertex -22.557022094726563 -7.8638768196105957 60.116085052490234
  endloop
 endfacet
 facet normal -0.032462700533232781 -0.78993692716984576 0.61232819971609309
  outer loop
   vertex -4.7117795944213867 -24.598978042602539 55.313018798828125
   vertex 12.460420608520508 -27.63136100769043 52.311466217041016
   vertex 13.977300643920898 -17.521718978881836 65.433876037597656
  endloop
 endfacet
 facet normal -0.23338042481984264 -0.60974778095881699 0.75745707530308826
  outer loop
   vertex 7.0519533157348633 -3.029979944229126 92.852958679199219
   vertex 29.542869567871094 11.76572322845459 111.69308471679688
   vertex 9.6796998977661133 4.9975509643554688 100.12470245361328
  endloop
 endfacet
 facet normal -0.40711850737408262 -0.70672706148991327 0.57861159814795571
  outer loop
   vertex -20.018257141113281 -24.491413116455078 77.262794494628906
   vertex -14.483150482177734 -32.904857635498047 70.881027221679688
   vertex -6.7720952033996582 -27.367221832275391 83.070396423339844
  endloop
 endfacet
 facet normal 0.29023452291530599 0.70350648234834789 0.64872378636980643
  outer loop
   vertex 56.676582336425781 18.933500289916992 42.754032135009766
   vertex 36.518943786621094 26.357402801513672 43.721591949462891
   vertex 46.159988403320313 16.62591552734375 49.961536407470703
  endloop
 endfacet
 facet normal 0.24933954252143897 0.94970085615655664 0.18946787683062002
  outer loop
   vertex -2.5648505687713623 12.45848274230957 77.94854736328125
   vertex 4.8045716285705566 10.327667236328125 78.9310302734375
   vertex 11.322731971740723 10.695371627807617 68.510032653808594
  endloop
 endfacet
 facet normal -0.93680671892690803 -0.33943106477449314 0.084733249904951222
  outer loop
   vertex -0.45687121152877808 -12.881787300109863 5.253882884979248
   vertex -1.8148607015609741 -7.4848670959472656 11.859420776367188
   vertex -5.4340925216674805 1.4483219385147095 7.6306343078613281
  endloop
 endfacet
 facet normal 0.78614667846056796 -0.38708930675799857 -0.4818041806989935
  outer loop
   vertex 4.8043050765991211 14.353054046630859 89.171173095703125
   vertex 3.3307161331176758 19.617216110229492 82.537445068359375
   vertex 19.485271453857422 38.630069732666016 93.62115478515625
  endloop
 endfacet
 facet normal -0.21969796630440275 0.85461356665082744 0.47049809276771909
  outer loop
   vertex 11.322731971740723 10.695371627807617 68.510032653808594
   vertex 17.373781204223633 15.595675468444824 62.434635162353516
   vertex 5.5918617248535156 20.200201034545898 48.569427490234375
  endloop
 endfacet
 facet normal -0.45485236441554122 0.28636529544683631 0.84326997109421487
  outer loop
   vertex -6.452786922454834 -22.764629364013672 5.3758444786071777
   vertex 10.061195373535156 -10.791481971740723 10.217390060424805
   vertex -0.45687121152877808 -12.881787300109863 5.253882884979248
  endloop
 endfacet
 facet normal -0.13519248276881313 0.58017041611573683 0.80319691288431683
  outer loop
   vertex 43.605113983154297 11.608113288879395 63.727176666259766
   vertex 29.236949920654297 1.3722803592681885 68.702369689941406
   vertex 50.795669555664063 1.5084975957870483 72.232696533203125
  endloop
 endfacet
 facet normal 0.84922695307878615 -0.46912805355181192 -0.24234779044837515
  outer loop
   vertex 19.485271453857422 38.630069732666016 93.62115478515625
   vertex 21.240665435791016 36.328994750976563 104.2266845703125
   vertex 4.8043050765991211 14.353054046630859 89.171173095703125
  endloop
 endfacet
 facet normal 0.6859333136015956 -0.68978744587636265 0.23170837016150117
  outer loop
   vertex 5.315333366394043 -16.999881744384766 80.260055541992188
   vertex -5.8181977272033691 -33.934970855712891 62.803836822509766
   vertex 1.5008262395858765 -25.917610168457031 65.004501342773438
  endloop
 endfacet
 facet normal 0.81231891611879381 -0.36861416636532041 0.45195306711027861
  outer loop
   vertex 13.184770584106445 0.51076304912567139 81.565673828125
   vertex 13.977300643920898 -17.521718978881836 65.433876037597656
   vertex 16.881767272949219 -3.6746792793273926 71.507209777832031
  endloop
 endfacet
 facet normal -0.72827202874336272 0.68292672519473396 0.056841359632075775
  outer loop
   vertex -9.3165512084960938 8.5891532897949219 87.904594421386719
   vertex -7.0963082313537598 11.379348754882813 82.828041076660156
   vertex -19.341691970825195 -1.290739893913269 78.16192626953125
  endloop
 endfacet
 facet normal 0.69593766853519468 -0.57742089074581304 0.42691436664055832
  outer loop
   vertex 5.315333366394043 -16.999881744384766 80.260055541992188
   vertex 13.977300643920898 -17.521718978881836 65.433876037597656
   vertex 10.39754581451416 -3.8880867958068848 89.709541320800781
  endloop
 endfacet
 facet normal 0.089284943694338273 -0.93556762038818064 -0.34167444521166046
  outer loop
   vertex 31.180925369262695 -41.306591033935547 27.114343643188477
   vertex 46.750907897949219 -33.683292388916016 10.309029579162598
   vertex 42.713348388671875 -41.427631378173828 30.459379196166992
  endloop
 endfacet
 facet normal -0.83724953774396316 0.38946796747069606 -0.38383318494075636
  outer loop
   vertex -17.016324996948242 6.6310520172119141 62.737964630126953
   vertex -17.36277961730957 -2.177473783493042 54.555843353271484
   vertex -22.557022094726563 -7.8638768196105957 60.116085052490234
  endloop
 endfacet
 facet normal 0.74938125127719468 0.59438327691543669 0.2917811857496872
  outer loop
   vertex 76.141288757324219 -2.2162666320800781 55.115955352783203
   vertex 74.177459716796875 6.9717121124267578 41.442955017089844
   vertex 68.242118835449219 9.4947519302368164 51.547035217285156
  endloop
 endfacet
 facet normal -0.00062140605713438643 -0.0019337854366426053 -0.99999793716207086
  outer loop
   vertex 67.265983581542969 -25.761890411376953 5.3358311653137207
   vertex -6.452786922454834 -22.764629364013672 5.3758444786071777
   vertex 70.4715576171875 -5.5913705825805664 5.2948336601257324
  endloop
 endfacet
 facet normal 0.26474761053707369 0.78145848954842612 -0.56500560335947303
  outer loop
   vertex 54.923351287841797 -0.26499336957931519 5.3762350082397461
   vertex 65.3927001953125 1.6851133108139038 12.97910213470459
   vertex 70.4715576171875 -5.5913705825805664 5.2948336601257324
  endloop
 endfacet
 facet normal 0.6987937607353788 -0.71498216183548391 -0.022085927971538435
  outer loop
   vertex 71.847755432128906 -25.795000076293945 51.512607574462891
   vertex 62.885677337646484 -34.117687225341797 37.382732391357422
   vertex 77.160118103027344 -20.248390197753906 40.035560607910156
  endloop
 endfacet
 facet normal -0.075546834176566172 -0.88416182708973157 0.46103203724171482
  outer loop
   vertex 12.460420608520508 -27.63136100769043 52.311466217041016
   vertex -4.7117795944213867 -24.598978042602539 55.313018798828125
   vertex -1.6933287382125854 -30.414913177490234 44.653903961181641
  endloop
 endfacet
 facet normal 0.083196045033670576 0.98910061319612885 0.12148413503745019
  outer loop
   vertex 5.5918617248535156 20.200201034545898 48.569427490234375
   vertex 32.650836944580078 16.574064254760742 59.561927795410156
   vertex 29.226991653442383 18.707151412963867 44.539493560791016
  endloop
 endfacet
 facet normal -0.47051104493800261 -0.67786932959173263 0.56490045901043839
  outer loop
   vertex 27.161108016967773 -20.210508346557617 64.589813232421875
   vertex 23.549337387084961 -31.615865707397461 47.895332336425781
   vertex 42.551219940185547 -31.091361999511719 64.351577758789063
  endloop
 endfacet
 facet normal -0.3124271486777197 -0.75967861528093961 -0.57033120049138486
  outer loop
   vertex -1.4258339405059814 -28.697832107543945 35.927810668945313
   vertex 7.3731212615966797 -20.273105621337891 19.886049270629883
   vertex 16.296308517456055 -30.711380004882813 28.901666641235352
  endloop
 endfacet
 facet normal -0.44281102806226824 0.87765205678512492 -0.18342644478721448
  outer loop
   vertex 23.36201286315918 20.396402359008789 106.93875885009766
   vertex 28.902402877807617 20.60258674621582 94.550209045410156
   vertex 6.3861947059631348 8.4257755279541016 90.643585205078125
  endloop
 endfacet
 facet normal -0.032079494087569459 0.99906059818563808 0.029134639384080559
  outer loop
   vertex 41.233245849609375 26.831974029541016 32.638805389404297
   vertex 28.565017700195313 26.427288055419922 32.567256927490234
   vertex 36.518943786621094 26.357402801513672 43.721591949462891
  endloop
 endfacet
 facet normal 0.24092996792900676 0.66491379168708109 -0.70699533250088464
  outer loop
   vertex 18.309347152709961 45.19732666015625 97.114212036132813
   vertex 4.5982027053833008 36.358455657958984 84.128959655761719
   vertex 6.2760767936706543 42.754451751708984 90.716041564941406
  endloop
 endfacet
 facet normal 0.84534851030240277 0.47518703351249431 0.24409665977047734
  outer loop
   vertex 16.219772338867188 41.004177093505859 112.51364135742188
   vertex 21.240665435791016 36.328994750976563 104.2266845703125
   vertex 18.309347152709961 45.19732666015625 97.114212036132813
  endloop
 endfacet
 facet normal -0.25282616149832399 0.11301323228001561 0.96088862070046732
  outer loop
   vertex -9.3165512084960938 8.5891532897949219 87.904594421386719
   vertex -21.593698501586914 -5.9087843894958496 86.379417419433594
   vertex -2.5820510387420654 3.2919635772705078 90.299575805664063
  endloop
 endfacet
 facet normal 0.34230567744759544 0.82477177498628373 0.45008703866376537
  outer loop
   vertex 82.996772766113281 -9.7580680847167969 31.685159683227539
   vertex 79.977447509765625 -3.0879931449890137 21.758729934692383
   vertex 74.103683471679688 -2.4333400726318359 25.026283264160156
  endloop
 endfacet
 facet normal -0.75951062479381082 0.48111821724893156 0.43780003638250747
  outer loop
   vertex 9.6796998977661133 4.9975509643554688 100.12470245361328
   vertex 23.36201286315918 20.396402359008789 106.93875885009766
   vertex 6.3861947059631348 8.4257755279541016 90.643585205078125
  endloop
 endfacet
 facet normal 0.13204920812248985 -0.85053425391752047 0.50907218500639995
  outer loop
   vertex 55.15216064453125 -35.401313781738281 50.349212646484375
   vertex 62.428028106689453 -28.382291793823242 60.188968658447266
   vertex 39.498386383056641 -40.304122924804688 46.218288421630859
  endloop
 endfacet
 facet normal -0.71592547565996278 -0.65478511015433016 0.24229563104034257
  outer loop
   vertex -20.018257141113281 -24.491413116455078 77.262794494628906
   vertex -22.721935272216797 -26.361108779907227 64.221366882324219
   vertex -14.483150482177734 -32.904857635498047 70.881027221679688
  endloop
 endfacet
 facet normal 0.36954162670460633 -0.90742515668875345 -0.20004642246464843
  outer loop
   vertex 55.135765075683594 -33.818977355957031 21.711509704589844
   vertex 64.277557373046875 -29.077144622802734 17.089654922485352
   vertex 62.885677337646484 -34.117687225341797 37.382732391357422
  endloop
 endfacet
 facet normal 0.51897198540706124 -0.7881281809159878 0.33094115611194264
  outer loop
   vertex 5.315333366394043 -16.999881744384766 80.260055541992188
   vertex 1.5008262395858765 -25.917610168457031 65.004501342773438
   vertex 13.977300643920898 -17.521718978881836 65.433876037597656
  endloop
 endfacet
 facet normal 0.20764879982949291 -0.88577711922283775 0.41506730898814681
  outer loop
   vertex 62.428028106689453 -28.382291793823242 60.188968658447266
   vertex 42.551219940185547 -31.091361999511719 64.351577758789063
   vertex 39.498386383056641 -40.304122924804688 46.218288421630859
  endloop
 endfacet
 facet normal -0.047607478880716064 0.67377605933313633 -0.73740039993488748
  outer loop
   vertex 36.363208770751953 19.849845886230469 93.3807373046875
   vertex 28.902402877807617 20.60258674621582 94.550209045410156
   vertex 30.041061401367188 30.601150512695313 103.61256408691406
  endloop
 endfacet
 facet normal -0.082643434358763354 0.52710162371431879 0.84577416668701666
  outer loop
   vertex 32.650836944580078 16.574064254760742 59.561927795410156
   vertex 29.236949920654297 1.3722803592681885 68.702369689941406
   vertex 43.605113983154297 11.608113288879395 63.727176666259766
  endloop
 endfacet
 facet normal -0.47727390062600489 -0.66679652336146866 0.57235654990075602
  outer loop
   vertex 42.551219940185547 -31.091361999511719 64.351577758789063
   vertex 23.549337387084961 -31.615865707397461 47.895332336425781
   vertex 27.724054336547852 -39.776821136474609 41.868995666503906
  endloop
 endfacet
 facet normal 0.11665625710286434 -0.082988916505402424 -0.98969902365113493
  outer loop
   vertex -0.45687121152877808 -12.881787300109863 5.253882884979248
   vertex 22.39579963684082 18.550373077392578 5.311866283416748
   vertex -6.452786922454834 -22.764629364013672 5.3758444786071777
  endloop
 endfacet
 facet normal -0.74061596035328114 0.63651535209786791 0.21525846281555167
  outer loop
   vertex -7.0963082313537598 11.379348754882813 82.828041076660156
   vertex -17.016324996948242 6.6310520172119141 62.737964630126953
   vertex -19.341691970825195 -1.290739893913269 78.16192626953125
  endloop
 endfacet
 facet normal -0.5994256869615 -0.78168957792349414 -0.17219247828091533
  outer loop
   vertex -1.4258339405059814 -28.697832107543945 35.927810668945313
   vertex -1.6933287382125854 -30.414913177490234 44.653903961181641
   vertex -10.10804557800293 -20.983579635620117 31.131956100463867
  endloop
 endfacet
 facet normal 0.95688570769134063 -0.16917258757726877 0.23611517958075801
  outer loop
   vertex 10.39754581451416 -3.8880867958068848 89.709541320800781
   vertex 13.977300643920898 -17.521718978881836 65.433876037597656
   vertex 13.184770584106445 0.51076304912567139 81.565673828125
  endloop
 endfacet
 facet normal 0.0073257355153639519 -0.1282543616804237 0.99171424932240737
  outer loop
   vertex 75.235496520996094 -20.461643218994141 30.358242034912109
   vertex 82.996772766113281 -9.7580680847167969 31.685159683227539
   vertex 77.443840026855469 -9.2925186157226563 31.786386489868164
  endloop
 endfacet
 facet normal 0.86832350025594385 0.49156230855342253 0.066187579747985684
  outer loop
   vertex 82.996772766113281 -9.7580680847167969 31.685159683227539
   vertex 84.232940673828125 -10.809188842773438 23.274181365966797
   vertex 79.977447509765625 -3.0879931449890137 21.758729934692383
  endloop
 endfacet
 facet normal -0.76541085839867151 -0.58674434249723728 0.26434313759372285
  outer loop
   vertex 23.549337387084961 -31.615865707397461 47.895332336425781
   vertex 16.296308517456055 -30.711380004882813 28.901666641235352
   vertex 27.724054336547852 -39.776821136474609 41.868995666503906
  endloop
 endfacet
 facet normal 0.2315499023702384 0.46257608586239451 0.85580839415172816
  outer loop
   vertex 29.236949920654297 1.3722803592681885 68.702369689941406
   vertex 32.650836944580078 16.574064254760742 59.561927795410156
   vertex 11.322731971740723 10.695371627807617 68.510032653808594
  endloop
 endfacet
 facet normal -0.00034650594124796736 0.0048273582033560468 -0.99998828820462149
  outer loop
   vertex 46.470149993896484 -32.180118560791016 5.3120536804199219
   vertex -6.452786922454834 -22.764629364013672 5.3758444786071777
   vertex 67.265983581542969 -25.761890411376953 5.3358311653137207
  endloop
 endfacet
 facet normal 0.031267252203132423 0.66377335328386822 -0.74727993042096008
  outer loop
   vertex 2.1134533882141113 16.716484069824219 32.44476318359375
   vertex 21.050880432128906 14.74404239654541 31.485105514526367
   vertex 6.2392578125 4.2788047790527344 21.569591522216797
  endloop
 endfacet
 facet normal -0.31111786354136739 -0.9475105711640387 0.073684411634023519
  outer loop
   vertex 16.296308517456055 -30.711380004882813 28.901666641235352
   vertex 23.549337387084961 -31.615865707397461 47.895332336425781
   vertex 12.460420608520508 -27.63136100769043 52.311466217041016
  endloop
 endfacet
 facet normal -0.2691812202754344 0.96251074602898112 -0.033384643621912839
  outer loop
   vertex 8.9051332473754883 5.376802921295166 5.2749066352844238
   vertex -5.4340925216674805 1.4483219385147095 7.6306343078613281
   vertex 10.393107414245605 6.1247873306274414 14.842429161071777
  endloop
 endfacet
 facet normal -0.11666998685826077 -0.96342881884077203 0.24123230545175314
  outer loop
   vertex 67.265983581542969 -25.761890411376953 5.3358311653137207
   vertex 82.011825561523438 -22.448846817016602 25.699102401733398
   vertex 75.235496520996094 -20.461643218994141 30.358242034912109
  endloop
 endfacet
 facet normal -0.011398268822846952 0.50898172198365488 -0.86070185671601485
  outer loop
   vertex 41.233245849609375 26.831974029541016 32.638805389404297
   vertex 49.960498809814453 21.494258880615234 29.366737365722656
   vertex 28.565017700195313 26.427288055419922 32.567256927490234
  endloop
 endfacet
 facet normal -0.52416653792536017 0.091053304477232908 0.84673415914507555
  outer loop
   vertex 23.36201286315918 20.396402359008789 106.93875885009766
   vertex 9.6796998977661133 4.9975509643554688 100.12470245361328
   vertex 29.542869567871094 11.76572322845459 111.69308471679688
  endloop
 endfacet
 facet normal 0.19841102386424866 -0.070374299432956047 0.97758913843621509
  outer loop
   vertex 38.195709228515625 23.468212127685547 110.77934265136719
   vertex 31.117164611816406 26.499443054199219 112.43421173095703
   vertex 29.542869567871094 11.76572322845459 111.69308471679688
  endloop
 endfacet
 facet normal -0.25919869875344331 0.96544101650939873 -0.027197025679668547
  outer loop
   vertex -2.5648505687713623 12.45848274230957 77.94854736328125
   vertex -5.4625592231750488 11.136493682861328 58.636871337890625
   vertex -7.0963082313537598 11.379348754882813 82.828041076660156
  endloop
 endfacet
 facet normal -0.43537950489639576 -0.82428523322690495 -0.36193720588002054
  outer loop
   vertex -19.512016296386719 -24.397981643676758 57.556541442871094
   vertex -5.8181977272033691 -33.934970855712891 62.803836822509766
   vertex -14.483150482177734 -32.904857635498047 70.881027221679688
  endloop
 endfacet
 facet normal -0.18235654850709238 0.8828791721847794 0.43274756676253989
  outer loop
   vertex 31.117164611816406 26.499443054199219 112.43421173095703
   vertex 35.363231658935547 30.643520355224609 105.76884460449219
   vertex 30.041061401367188 30.601150512695313 103.61256408691406
  endloop
 endfacet
 facet normal -0.58329142571079762 -0.81055671606114443 -0.052620554353203071
  outer loop
   vertex 31.180925369262695 -41.306591033935547 27.114343643188477
   vertex 27.724054336547852 -39.776821136474609 41.868995666503906
   vertex 16.296308517456055 -30.711380004882813 28.901666641235352
  endloop
 endfacet
 facet normal 0.66281384176062608 -0.70260531816700089 0.25888912308933992
  outer loop
   vertex 5.315333366394043 -16.999881744384766 80.260055541992188
   vertex -6.7720952033996582 -27.367221832275391 83.070396423339844
   vertex -5.8181977272033691 -33.934970855712891 62.803836822509766
  endloop
 endfacet
 facet normal -0.45904152540093984 0.77249653474473934 0.43878238543148929
  outer loop
   vertex 9.6796998977661133 4.9975509643554688 100.12470245361328
   vertex 6.3861947059631348 8.4257755279541016 90.643585205078125
   vertex -2.5820510387420654 3.2919635772705078 90.299575805664063
  endloop
 endfacet
 facet normal 0.94158086521041451 0.29038552268653378 -0.17059226970667801
  outer loop
   vertex 74.177459716796875 6.9717121124267578 41.442955017089844
   vertex 77.443840026855469 -9.2925186157226563 31.786386489868164
   vertex 74.103683471679688 -2.4333400726318359 25.026283264160156
  endloop
 endfacet
 facet normal 0.19206738788063185 -0.87005657864541852 0.45399522956583971
  outer loop
   vertex 22.616880416870117 2.458946704864502 96.787277221679688
   vertex 29.542869567871094 11.76572322845459 111.69308471679688
   vertex 7.0519533157348633 -3.029979944229126 92.852958679199219
  endloop
 endfacet
 facet normal 0.072804606695323432 0.71784146627485756 0.69238942694144434
  outer loop
   vertex 74.103683471679688 -2.4333400726318359 25.026283264160156
   vertex 77.443840026855469 -9.2925186157226563 31.786386489868164
   vertex 82.996772766113281 -9.7580680847167969 31.685159683227539
  endloop
 endfacet
 facet normal 0.18146098400784239 0.98329883103946791 0.013975698884897829
  outer loop
   vertex 56.439388275146484 12.568313598632813 14.206013679504395
   vertex 54.831985473632813 12.990793228149414 5.3518710136413574
   vertex 31.86298942565918 17.091348648071289 15.07627010345459
  endloop
 endfacet
 facet normal -0.44449240205134544 -0.89380343576474119 0.05951405492628925
  outer loop
   vertex 12.697721481323242 -28.181570053100586 5.3103785514831543
   vertex 17.847951889038086 -29.947572708129883 17.253423690795898
   vertex 7.3378453254699707 -24.842544555664063 15.425774574279785
  endloop
 endfacet
 facet normal 0.88266393515483554 -0.25119255204598268 -0.39724888844854761
  outer loop
   vertex 82.011825561523438 -22.448846817016602 25.699102401733398
   vertex 74.377952575683594 -16.983009338378906 5.2808651924133301
   vertex 84.232940673828125 -10.809188842773438 23.274181365966797
  endloop
 endfacet
 facet normal -0.81446378708420886 -0.2846575099302327 -0.50558762007071334
  outer loop
   vertex 7.3731212615966797 -20.273105621337891 19.886049270629883
   vertex 6.4197812080383301 -6.827970027923584 13.851886749267578
   vertex 10.061195373535156 -10.791481971740723 10.217390060424805
  endloop
 endfacet
 facet normal -0.39000396782003488 -0.13602337998964645 0.91071101079366634
  outer loop
   vertex 48.751998901367188 -10.750253677368164 75.2489013671875
   vertex 29.236949920654297 1.3722803592681885 68.702369689941406
   vertex 27.161108016967773 -20.210508346557617 64.589813232421875
  endloop
 endfacet
 facet normal -0.027436891601155519 -0.23214403348510351 -0.97229438170573301
  outer loop
   vertex 19.874364852905273 -37.050163269042969 7.2253193855285645
   vertex 12.697721481323242 -28.181570053100586 5.3103785514831543
   vertex 46.470149993896484 -32.180118560791016 5.3120536804199219
  endloop
 endfacet
 facet normal -0.0027031947659446804 0.0073913272704938882 -0.99996903003004944
  outer loop
   vertex 54.923351287841797 -0.26499336957931519 5.3762350082397461
   vertex 70.4715576171875 -5.5913705825805664 5.2948336601257324
   vertex -6.452786922454834 -22.764629364013672 5.3758444786071777
  endloop
 endfacet
 facet normal -0.9689550833750884 0.037725482366757844 -0.24434163456474456
  outer loop
   vertex -21.593698501586914 -5.9087843894958496 86.379417419433594
   vertex -19.341691970825195 -1.290739893913269 78.16192626953125
   vertex -20.018257141113281 -24.491413116455078 77.262794494628906
  endloop
 endfacet
 facet normal -0.80084301987340767 0.48216613109958906 0.3551989295317407
  outer loop
   vertex 29.226991653442383 18.707151412963867 44.539493560791016
   vertex 28.565017700195313 26.427288055419922 32.567256927490234
   vertex 21.050880432128906 14.74404239654541 31.485105514526367
  endloop
 endfacet
 facet normal -0.54156047545059804 0.76763307180475193 -0.34271229698002192
  outer loop
   vertex -4.4621658325195313 33.056182861328125 103.48020935058594
   vertex 8.3803796768188477 43.984310150146484 107.66382598876953
   vertex 3.2698211669921875 34.315593719482422 94.082901000976563
  endloop
 endfacet
 facet normal -0.33642023468377519 0.31739112946259562 0.88661395016871436
  outer loop
   vertex -21.593698501586914 -5.9087843894958496 86.379417419433594
   vertex -4.2053709030151367 -8.0403270721435547 93.740364074707031
   vertex -2.5820510387420654 3.2919635772705078 90.299575805664063
  endloop
 endfacet
 facet normal -0.065647224151453187 -0.81724981122759821 0.57253225936157004
  outer loop
   vertex 12.460420608520508 -27.63136100769043 52.311466217041016
   vertex 23.549337387084961 -31.615865707397461 47.895332336425781
   vertex 27.161108016967773 -20.210508346557617 64.589813232421875
  endloop
 endfacet
 facet normal 0.18778353880372872 0.94455974503515516 0.26934036202075484
  outer loop
   vertex 32.650836944580078 16.574064254760742 59.561927795410156
   vertex 57.814292907714844 13.204912185668945 53.833423614501953
   vertex 46.159988403320313 16.62591552734375 49.961536407470703
  endloop
 endfacet
 facet normal 0.074259827102525655 -0.69086460254625237 0.71916032915290284
  outer loop
   vertex 10.60813045501709 28.953554153442383 101.51660919189453
   vertex 16.219772338867188 41.004177093505859 112.51364135742188
   vertex 1.8803677558898926 37.066368103027344 110.21144104003906
  endloop
 endfacet
 facet normal -0.028738528016192557 -0.95765950921455467 -0.28646528833071688
  outer loop
   vertex 46.470149993896484 -32.180118560791016 5.3120536804199219
   vertex 46.750907897949219 -33.683292388916016 10.309029579162598
   vertex 31.452627182006836 -34.743919372558594 15.389469146728516
  endloop
 endfacet
 facet normal -0.4202574780920087 -0.63216538413662904 0.65096127320074348
  outer loop
   vertex 17.847951889038086 -29.947572708129883 17.253423690795898
   vertex 7.3731212615966797 -20.273105621337891 19.886049270629883
   vertex 7.3378453254699707 -24.842544555664063 15.425774574279785
  endloop
 endfacet
 facet normal -0.24677961954393787 0.33114317735325033 0.91073817064518781
  outer loop
   vertex -5.4340925216674805 1.4483219385147095 7.6306343078613281
   vertex -1.8148607015609741 -7.4848670959472656 11.859420776367188
   vertex 6.4197812080383301 -6.827970027923584 13.851886749267578
  endloop
 endfacet
 facet normal 0.63567206457503977 -0.76634059285696454 -0.092968392793156412
  outer loop
   vertex -6.7720952033996582 -27.367221832275391 83.070396423339844
   vertex 5.315333366394043 -16.999881744384766 80.260055541992188
   vertex 3.6304152011871338 -19.401826858520508 88.538703918457031
  endloop
 endfacet
 facet normal 0.42679979424759185 0.89061767338810927 -0.15697800953943986
  outer loop
   vertex 63.935928344726563 15.736154556274414 34.695133209228516
   vertex 63.092521667480469 13.910298347473145 22.043006896972656
   vertex 49.960498809814453 21.494258880615234 29.366737365722656
  endloop
 endfacet
 facet normal 0.071985150952769306 -0.99373153744557619 0.085532271853134723
  outer loop
   vertex 39.498386383056641 -40.304122924804688 46.218288421630859
   vertex 42.713348388671875 -41.427631378173828 30.459379196166992
   vertex 49.207832336425781 -39.966232299804688 41.972366333007813
  endloop
 endfacet
 facet normal -0.21225682077767144 -0.85632705940047904 0.47079826823373505
  outer loop
   vertex 42.551219940185547 -31.091361999511719 64.351577758789063
   vertex 27.724054336547852 -39.776821136474609 41.868995666503906
   vertex 39.498386383056641 -40.304122924804688 46.218288421630859
  endloop
 endfacet
 facet normal -0.019909366815269884 0.9911334266131131 0.13137026970804208
  outer loop
   vertex 59.223037719726563 11.886848449707031 63.991157531738281
   vertex 57.814292907714844 13.204912185668945 53.833423614501953
   vertex 43.605113983154297 11.608113288879395 63.727176666259766
  endloop
 endfacet
 facet normal -0.65347527231339053 0.62485996530349242 -0.42722370280200817
  outer loop
   vertex 2.1134533882141113 16.716484069824219 32.44476318359375
   vertex -7.5535421371459961 1.5064057111740112 24.984909057617188
   vertex -8.1924896240234375 14.455392837524414 44.901500701904297
  endloop
 endfacet
 facet normal 0.18149671856973779 -0.98318122633559002 0.020337584164861085
  outer loop
   vertex 19.874364852905273 -37.050163269042969 7.2253193855285645
   vertex 46.470149993896484 -32.180118560791016 5.3120536804199219
   vertex 31.452627182006836 -34.743919372558594 15.389469146728516
  endloop
 endfacet
 facet normal 0.91251486778317281 -0.40322819793523762 0.068728716447782223
  outer loop
   vertex 5.315333366394043 -16.999881744384766 80.260055541992188
   vertex 10.39754581451416 -3.8880867958068848 89.709541320800781
   vertex 3.6304152011871338 -19.401826858520508 88.538703918457031
  endloop
 endfacet
 facet normal -0.70801602004163589 0.47971189000267761 -0.51825651752241475
  outer loop
   vertex -4.4621658325195313 33.056182861328125 103.48020935058594
   vertex 3.2698211669921875 34.315593719482422 94.082901000976563
   vertex -4.2459316253662109 23.64100456237793 94.469863891601563
  endloop
 endfacet
 facet normal 0.0032349997383421258 -0.00050729241809077457 -0.999994638701176
  outer loop
   vertex 8.9051332473754883 5.376802921295166 5.2749066352844238
   vertex 22.39579963684082 18.550373077392578 5.311866283416748
   vertex -0.45687121152877808 -12.881787300109863 5.253882884979248
  endloop
 endfacet
 facet normal 0.61500154786521533 -0.62446068780620834 0.48147891491527056
  outer loop
   vertex 67.756690979003906 -19.785345077514648 64.532501220703125
   vertex 62.428028106689453 -28.382291793823242 60.188968658447266
   vertex 71.847755432128906 -25.795000076293945 51.512607574462891
  endloop
 endfacet
 facet normal -0.18677613228548368 -0.96281759252252685 -0.19518442544834649
  outer loop
   vertex -1.4258339405059814 -28.697832107543945 35.927810668945313
   vertex 16.296308517456055 -30.711380004882813 28.901666641235352
   vertex -1.6933287382125854 -30.414913177490234 44.653903961181641
  endloop
 endfacet
 facet normal -0.84726379554187004 0.29374651321074097 -0.44255739372483244
  outer loop
   vertex 6.2392578125 4.2788047790527344 21.569591522216797
   vertex 10.393107414245605 6.1247873306274414 14.842429161071777
   vertex 6.4197812080383301 -6.827970027923584 13.851886749267578
  endloop
 endfacet
 facet normal 0.29467986520079981 -0.95493042744885626 0.035660282915072998
  outer loop
   vertex 55.259841918945313 -29.120697021484375 14.605010986328125
   vertex 46.470149993896484 -32.180118560791016 5.3120536804199219
   vertex 67.265983581542969 -25.761890411376953 5.3358311653137207
  endloop
 endfacet
 facet normal -0.45427104167448668 0.8901259584945086 -0.036243602334886049
  outer loop
   vertex 10.393107414245605 6.1247873306274414 14.842429161071777
   vertex 6.2392578125 4.2788047790527344 21.569591522216797
   vertex 31.86298942565918 17.091348648071289 15.07627010345459
  endloop
 endfacet
 facet normal 0.15362165603674538 -0.8255078084859947 -0.54308125075828051
  outer loop
   vertex 55.135765075683594 -33.818977355957031 21.711509704589844
   vertex 55.259841918945313 -29.120697021484375 14.605010986328125
   vertex 64.277557373046875 -29.077144622802734 17.089654922485352
  endloop
 endfacet
 facet normal 0.11781510636352271 0.2462271827660483 0.96202483085398938
  outer loop
   vertex 11.322731971740723 10.695371627807617 68.510032653808594
   vertex 16.881767272949219 -3.6746792793273926 71.507209777832031
   vertex 29.236949920654297 1.3722803592681885 68.702369689941406
  endloop
 endfacet
 facet normal 0.3805831859618512 -0.25408476484774728 0.88915542557833627
  outer loop
   vertex 67.756690979003906 -19.785345077514648 64.532501220703125
   vertex 48.751998901367188 -10.750253677368164 75.2489013671875
   vertex 47.880558013916016 -23.292018890380859 72.037971496582031
  endloop
 endfacet
 facet normal 0.21199557158522761 -0.88903734143621715 0.40579611033162438
  outer loop
   vertex 7.3378453254699707 -24.842544555664063 15.425774574279785
   vertex 1.3716708421707153 -29.638381958007813 8.0356693267822266
   vertex 12.697721481323242 -28.181570053100586 5.3103785514831543
  endloop
 endfacet
 facet normal 0.54523762452441527 0.82186881228505604 0.16506843488724335
  outer loop
   vertex 63.935928344726563 15.736154556274414 34.695133209228516
   vertex 56.676582336425781 18.933500289916992 42.754032135009766
   vertex 68.242118835449219 9.4947519302368164 51.547035217285156
  endloop
 endfacet
 facet normal -0.8747912037243758 -0.19817121532757961 -0.44211821869500906
  outer loop
   vertex -20.511680603027344 -9.2145481109619141 46.441719055175781
   vertex -10.10804557800293 -20.983579635620117 31.131956100463867
   vertex -15.619653701782227 -19.234952926635742 41.253635406494141
  endloop
 endfacet
 facet normal 0.51406892694658013 -0.74190217789569379 -0.4304814708923233
  outer loop
   vertex -4.7117795944213867 -24.598978042602539 55.313018798828125
   vertex 13.977300643920898 -17.521718978881836 65.433876037597656
   vertex 1.5008262395858765 -25.917610168457031 65.004501342773438
  endloop
 endfacet
 facet normal 0.40594604345791752 -0.20300155673844755 0.89106575389397025
  outer loop
   vertex 48.751998901367188 -10.750253677368164 75.2489013671875
   vertex 67.756690979003906 -19.785345077514648 64.532501220703125
   vertex 63.769542694091797 -6.0743117332458496 69.472572326660156
  endloop
 endfacet
 facet normal 0.072566998744160935 0.99423389109223836 -0.078949353998952629
  outer loop
   vertex -2.5648505687713623 12.45848274230957 77.94854736328125
   vertex 11.322731971740723 10.695371627807617 68.510032653808594
   vertex -5.4625592231750488 11.136493682861328 58.636871337890625
  endloop
 endfacet
 facet normal 0.96768446937927755 -0.167192255811909 -0.18876842246167985
  outer loop
   vertex 77.160118103027344 -20.248390197753906 40.035560607910156
   vertex 75.235496520996094 -20.461643218994141 30.358242034912109
   vertex 77.443840026855469 -9.2925186157226563 31.786386489868164
  endloop
 endfacet
 facet normal -0.56235807583866981 -0.81748106678529131 0.12441101232049721
  outer loop
   vertex -15.295059204101563 -17.339925765991211 55.172718048095703
   vertex -15.619653701782227 -19.234952926635742 41.253635406494141
   vertex -4.7117795944213867 -24.598978042602539 55.313018798828125
  endloop
 endfacet
 facet normal -0.35340616384747575 0.92720389209372334 -0.12408475265262188
  outer loop
   vertex 5.5918617248535156 20.200201034545898 48.569427490234375
   vertex 2.1134533882141113 16.716484069824219 32.44476318359375
   vertex -8.1924896240234375 14.455392837524414 44.901500701904297
  endloop
 endfacet
 facet normal 0.96662917581790853 0.23146972827791373 -0.10977158716416462
  outer loop
   vertex 21.240665435791016 36.328994750976563 104.2266845703125
   vertex 19.485271453857422 38.630069732666016 93.62115478515625
   vertex 18.309347152709961 45.19732666015625 97.114212036132813
  endloop
 endfacet
 facet normal 0.11324807578859805 -0.9825083570458959 0.14782490204682747
  outer loop
   vertex 16.296308517456055 -30.711380004882813 28.901666641235352
   vertex 12.460420608520508 -27.63136100769043 52.311466217041016
   vertex -1.6933287382125854 -30.414913177490234 44.653903961181641
  endloop
 endfacet
 facet normal 0.73081562285886403 0.59084437977477011 -0.34177689253953059
  outer loop
   vertex 74.103683471679688 -2.4333400726318359 25.026283264160156
   vertex 63.935928344726563 15.736154556274414 34.695133209228516
   vertex 74.177459716796875 6.9717121124267578 41.442955017089844
  endloop
 endfacet
 facet normal -0.72052565799171486 0.36794045482929899 -0.58776066377022462
  outer loop
   vertex 4.5982027053833008 36.358455657958984 84.128959655761719
   vertex -2.5648505687713623 12.45848274230957 77.94854736328125
   vertex -7.0963082313537598 11.379348754882813 82.828041076660156
  endloop
 endfacet
 facet normal -0.79797774045508352 0.021627852388643339 -0.60229873131134393
  outer loop
   vertex -16.08183479309082 1.1827890872955322 36.272312164306641
   vertex -7.5535421371459961 1.5064057111740112 24.984909057617188
   vertex -7.1356124877929688 -15.087037086486816 23.835348129272461
  endloop
 endfacet
 facet normal -0.86098220361065814 -0.11725811147093293 -0.49493452128539722
  outer loop
   vertex -20.511680603027344 -9.2145481109619141 46.441719055175781
   vertex -16.08183479309082 1.1827890872955322 36.272312164306641
   vertex -10.10804557800293 -20.983579635620117 31.131956100463867
  endloop
 endfacet
 facet normal 0.34074109829050864 -0.71537098114454001 0.61003267393810634
  outer loop
   vertex 10.60813045501709 28.953554153442383 101.51660919189453
   vertex 21.240665435791016 36.328994750976563 104.2266845703125
   vertex 16.219772338867188 41.004177093505859 112.51364135742188
  endloop
 endfacet
 facet normal 0.31459765836593379 -0.20714067617924503 0.92634823561265356
  outer loop
   vertex 10.39754581451416 -3.8880867958068848 89.709541320800781
   vertex -4.2053709030151367 -8.0403270721435547 93.740364074707031
   vertex 3.6304152011871338 -19.401826858520508 88.538703918457031
  endloop
 endfacet
 facet normal 0.58933068402852562 0.032123440927064789 -0.80725301449141418
  outer loop
   vertex 3.3307161331176758 19.617216110229492 82.537445068359375
   vertex -2.5648505687713623 12.45848274230957 77.94854736328125
   vertex 4.5982027053833008 36.358455657958984 84.128959655761719
  endloop
 endfacet
 facet normal 0.83304932849597457 0.53696712280714454 -0.1330230255129643
  outer loop
   vertex 74.103683471679688 -2.4333400726318359 25.026283264160156
   vertex 63.092521667480469 13.910298347473145 22.043006896972656
   vertex 63.935928344726563 15.736154556274414 34.695133209228516
  endloop
 endfacet
 facet normal -0.92414299713223913 0.36888319679135861 0.099422874513011558
  outer loop
   vertex 3.2698211669921875 34.315593719482422 94.082901000976563
   vertex 6.2760767936706543 42.754451751708984 90.716041564941406
   vertex -7.0963082313537598 11.379348754882813 82.828041076660156
  endloop
 endfacet
 facet normal 0.89625779666276606 -0.22189224291915113 0.38403879290185283
  outer loop
   vertex 67.756690979003906 -19.785345077514648 64.532501220703125
   vertex 71.847755432128906 -25.795000076293945 51.512607574462891
   vertex 76.141288757324219 -2.2162666320800781 55.115955352783203
  endloop
 endfacet
 facet normal -0.50519461962933387 0.38433646641847669 0.7726990855944712
  outer loop
   vertex 10.061195373535156 -10.791481971740723 10.217390060424805
   vertex -6.452786922454834 -22.764629364013672 5.3758444786071777
   vertex 7.3378453254699707 -24.842544555664063 15.425774574279785
  endloop
 endfacet
 facet normal 0.047097380219657557 0.42943329919668577 -0.90186965705554967
  outer loop
   vertex 38.374301910400391 19.974197387695313 16.788997650146484
   vertex 56.439388275146484 12.568313598632813 14.206013679504395
   vertex 31.86298942565918 17.091348648071289 15.07627010345459
  endloop
 endfacet
 facet normal 0.37397909063724427 -0.59235507960920386 0.71362111755981095
  outer loop
   vertex 62.428028106689453 -28.382291793823242 60.188968658447266
   vertex 67.756690979003906 -19.785345077514648 64.532501220703125
   vertex 47.880558013916016 -23.292018890380859 72.037971496582031
  endloop
 endfacet
 facet normal 0.69862176554013788 -0.49630685290282722 -0.51537087274628923
  outer loop
   vertex -4.7117795944213867 -24.598978042602539 55.313018798828125
   vertex 1.5008262395858765 -25.917610168457031 65.004501342773438
   vertex -5.8181977272033691 -33.934970855712891 62.803836822509766
  endloop
 endfacet
 facet normal -0.7558362004569863 0.58611937444506357 0.29184879129246616
  outer loop
   vertex -5.4625592231750488 11.136493682861328 58.636871337890625
   vertex -8.1924896240234375 14.455392837524414 44.901500701904297
   vertex -17.36277961730957 -2.177473783493042 54.555843353271484
  endloop
 endfacet
 facet normal -0.30359490342935497 0.56810710892436256 -0.76490813004002189
  outer loop
   vertex -7.5535421371459961 1.5064057111740112 24.984909057617188
   vertex 2.1134533882141113 16.716484069824219 32.44476318359375
   vertex 6.2392578125 4.2788047790527344 21.569591522216797
  endloop
 endfacet
 facet normal 0.24735733017928746 0.74033145461822525 -0.62507894582159584
  outer loop
   vertex 30.041061401367188 30.601150512695313 103.61256408691406
   vertex 35.363231658935547 30.643520355224609 105.76884460449219
   vertex 36.363208770751953 19.849845886230469 93.3807373046875
  endloop
 endfacet
 facet normal 0.80398425952565444 -0.59464616566853934 -0.0022908711637795198
  outer loop
   vertex 22.616880416870117 2.458946704864502 96.787277221679688
   vertex 38.195709228515625 23.468212127685547 110.77934265136719
   vertex 29.542869567871094 11.76572322845459 111.69308471679688
  endloop
 endfacet
 facet normal -0.90941143774260125 0.13473833758737747 0.39346717434510964
  outer loop
   vertex -2.1547973155975342 20.623607635498047 100.33632659912109
   vertex -4.2459316253662109 23.64100456237793 94.469863891601563
   vertex -9.3165512084960938 8.5891532897949219 87.904594421386719
  endloop
 endfacet
 facet normal 0.020064311152083025 0.98665112171420677 -0.16160751046312719
  outer loop
   vertex 79.977447509765625 -3.0879931449890137 21.758729934692383
   vertex 70.4715576171875 -5.5913705825805664 5.2948336601257324
   vertex 74.103683471679688 -2.4333400726318359 25.026283264160156
  endloop
 endfacet
 facet normal -0.40491397179140398 -0.6234914881198077 -0.66880717676342105
  outer loop
   vertex -10.10804557800293 -20.983579635620117 31.131956100463867
   vertex -7.1356124877929688 -15.087037086486816 23.835348129272461
   vertex 7.3731212615966797 -20.273105621337891 19.886049270629883
  endloop
 endfacet
 facet normal -0.77831486714471876 -0.57573885117009638 0.2505009837003363
  outer loop
   vertex 17.847951889038086 -29.947572708129883 17.253423690795898
   vertex 12.697721481323242 -28.181570053100586 5.3103785514831543
   vertex 19.874364852905273 -37.050163269042969 7.2253193855285645
  endloop
 endfacet
 facet normal 0.65230095909052288 -0.75646901602965833 -0.047519328243406191
  outer loop
   vertex 67.265983581542969 -25.761890411376953 5.3358311653137207
   vertex 75.235496520996094 -20.461643218994141 30.358242034912109
   vertex 64.277557373046875 -29.077144622802734 17.089654922485352
  endloop
 endfacet
 facet normal 0.55365589466937315 -0.79709292062503778 -0.24105606440681643
  outer loop
   vertex 10.39754581451416 -3.8880867958068848 89.709541320800781
   vertex 13.184770584106445 0.51076304912567139 81.565673828125
   vertex 22.616880416870117 2.458946704864502 96.787277221679688
  endloop
 endfacet
 facet normal -0.94793127926587906 -0.23128955826305714 0.21893247823891709
  outer loop
   vertex -4.4621658325195313 33.056182861328125 103.48020935058594
   vertex -4.2459316253662109 23.64100456237793 94.469863891601563
   vertex -2.1547973155975342 20.623607635498047 100.33632659912109
  endloop
 endfacet
 facet normal 0.44380449923684778 0.015485813762478592 -0.89598981915490783
  outer loop
   vertex 36.363208770751953 19.849845886230469 93.3807373046875
   vertex 13.184770584106445 0.51076304912567139 81.565673828125
   vertex 9.6576147079467773 7.2935247421264648 79.935821533203125
  endloop
 endfacet
 facet normal -0.0064934432257250747 -0.0010005397727290562 -0.99997841682470201
  outer loop
   vertex 74.377952575683594 -16.983009338378906 5.2808651924133301
   vertex 67.265983581542969 -25.761890411376953 5.3358311653137207
   vertex 70.4715576171875 -5.5913705825805664 5.2948336601257324
  endloop
 endfacet
 facet normal -0.029357838555405209 -0.99744534875910551 0.065122143347568134
  outer loop
   vertex 39.498386383056641 -40.304122924804688 46.218288421630859
   vertex 31.180925369262695 -41.306591033935547 27.114343643188477
   vertex 42.713348388671875 -41.427631378173828 30.459379196166992
  endloop
 endfacet
 facet normal -0.66109734394658082 -0.12028523665623836 -0.74059554661726734
  outer loop
   vertex -15.295059204101563 -17.339925765991211 55.172718048095703
   vertex -22.557022094726563 -7.8638768196105957 60.116085052490234
   vertex -17.36277961730957 -2.177473783493042 54.555843353271484
  endloop
 endfacet
 facet normal -0.14275054652039523 -0.49430285431255644 -0.85748875776104971
  outer loop
   vertex 1.3716708421707153 -29.638381958007813 8.0356693267822266
   vertex -6.452786922454834 -22.764629364013672 5.3758444786071777
   vertex 12.697721481323242 -28.181570053100586 5.3103785514831543
  endloop
 endfacet
 facet normal -0.92662182435525287 0.3654223802982714 0.088535182869232093
  outer loop
   vertex 8.3803796768188477 43.984310150146484 107.66382598876953
   vertex 6.2760767936706543 42.754451751708984 90.716041564941406
   vertex 3.2698211669921875 34.315593719482422 94.082901000976563
  endloop
 endfacet
 facet normal 0.53284678732441326 0.040013507390320946 -0.84526517760071973
  outer loop
   vertex 4.5982027053833008 36.358455657958984 84.128959655761719
   vertex 19.485271453857422 38.630069732666016 93.62115478515625
   vertex 3.3307161331176758 19.617216110229492 82.537445068359375
  endloop
 endfacet
 facet normal -0.10722922294835702 -0.72367821462451865 0.68175636075049617
  outer loop
   vertex 10.061195373535156 -10.791481971740723 10.217390060424805
   vertex 6.4197812080383301 -6.827970027923584 13.851886749267578
   vertex -1.8148607015609741 -7.4848670959472656 11.859420776367188
  endloop
 endfacet
 facet normal 0.46183584709235476 0.46508267761688088 -0.75525211242418888
  outer loop
   vertex 56.439388275146484 12.568313598632813 14.206013679504395
   vertex 65.3927001953125 1.6851133108139038 12.97910213470459
   vertex 54.923351287841797 -0.26499336957931519 5.3762350082397461
  endloop
 endfacet
 facet normal 0.79232206553660922 0.33684297900749843 -0.50868708648554772
  outer loop
   vertex 79.977447509765625 -3.0879931449890137 21.758729934692383
   vertex 84.232940673828125 -10.809188842773438 23.274181365966797
   vertex 70.4715576171875 -5.5913705825805664 5.2948336601257324
  endloop
 endfacet
 facet normal -0.25137391528402919 0.060590781799788704 -0.96599167277760123
  outer loop
   vertex -7.5535421371459961 1.5064057111740112 24.984909057617188
   vertex 6.2392578125 4.2788047790527344 21.569591522216797
   vertex -7.1356124877929688 -15.087037086486816 23.835348129272461
  endloop
 endfacet
 facet normal 0.70324541922514405 -0.6997684313603848 -0.12557875142824945
  outer loop
   vertex 77.160118103027344 -20.248390197753906 40.035560607910156
   vertex 62.885677337646484 -34.117687225341797 37.382732391357422
   vertex 64.277557373046875 -29.077144622802734 17.089654922485352
  endloop
 endfacet
 facet normal -0.57037675818138966 -0.40104915592612217 0.71681931353544992
  outer loop
   vertex -2.1547973155975342 20.623607635498047 100.33632659912109
   vertex -9.3165512084960938 8.5891532897949219 87.904594421386719
   vertex -2.5820510387420654 3.2919635772705078 90.299575805664063
  endloop
 endfacet
 facet normal 0.29595969363998681 -0.20618612881400281 0.93268169276834245
  outer loop
   vertex 29.236949920654297 1.3722803592681885 68.702369689941406
   vertex 16.881767272949219 -3.6746792793273926 71.507209777832031
   vertex 27.161108016967773 -20.210508346557617 64.589813232421875
  endloop
 endfacet
 facet normal -0.35042384331339038 -0.81379397924377861 -0.46361890533502731
  outer loop
   vertex 17.847951889038086 -29.947572708129883 17.253423690795898
   vertex 31.452627182006836 -34.743919372558594 15.389469146728516
   vertex 31.180925369262695 -41.306591033935547 27.114343643188477
  endloop
 endfacet
 facet normal 0.089376565619996337 0.96938207537815846 -0.22871427907655659
  outer loop
   vertex 2.1134533882141113 16.716484069824219 32.44476318359375
   vertex 5.5918617248535156 20.200201034545898 48.569427490234375
   vertex 21.050880432128906 14.74404239654541 31.485105514526367
  endloop
 endfacet
 facet normal 0.21897424098128612 0.86373385950423864 0.45388776336510972
  outer loop
   vertex 43.605113983154297 11.608113288879395 63.727176666259766
   vertex 57.814292907714844 13.204912185668945 53.833423614501953
   vertex 32.650836944580078 16.574064254760742 59.561927795410156
  endloop
 endfacet
 facet normal -0.024378830501247836 0.63375850470779727 0.77314670686353459
  outer loop
   vertex 50.795669555664063 1.5084975957870483 72.232696533203125
   vertex 59.223037719726563 11.886848449707031 63.991157531738281
   vertex 43.605113983154297 11.608113288879395 63.727176666259766
  endloop
 endfacet
 facet normal 0.57484317571063914 0.769777768362641 0.27748425301904844
  outer loop
   vertex 36.518943786621094 26.357402801513672 43.721591949462891
   vertex 49.960498809814453 21.494258880615234 29.366737365722656
   vertex 41.233245849609375 26.831974029541016 32.638805389404297
  endloop
 endfacet
 facet normal -0.82928183072285511 0.42418578200516227 -0.36381048305074826
  outer loop
   vertex 28.902402877807617 20.60258674621582 94.550209045410156
   vertex 23.36201286315918 20.396402359008789 106.93875885009766
   vertex 30.041061401367188 30.601150512695313 103.61256408691406
  endloop
 endfacet
 facet normal -0.42911336826234148 0.062724810197619621 0.90107009458988307
  outer loop
   vertex -5.4340925216674805 1.4483219385147095 7.6306343078613281
   vertex 6.4197812080383301 -6.827970027923584 13.851886749267578
   vertex 10.393107414245605 6.1247873306274414 14.842429161071777
  endloop
 endfacet
 facet normal 0.41679502274797875 0.48391302896101118 -0.76948690009271214
  outer loop
   vertex 19.485271453857422 38.630069732666016 93.62115478515625
   vertex 4.5982027053833008 36.358455657958984 84.128959655761719
   vertex 18.309347152709961 45.19732666015625 97.114212036132813
  endloop
 endfacet
 facet normal -0.58530226098804317 -0.80025380274221236 -0.1304419966073537
  outer loop
   vertex 31.180925369262695 -41.306591033935547 27.114343643188477
   vertex 16.296308517456055 -30.711380004882813 28.901666641235352
   vertex 17.847951889038086 -29.947572708129883 17.253423690795898
  endloop
 endfacet
 facet normal -0.69929707106783057 -0.36175796792209286 0.61653449136348537
  outer loop
   vertex -21.593698501586914 -5.9087843894958496 86.379417419433594
   vertex -20.018257141113281 -24.491413116455078 77.262794494628906
   vertex -14.117410659790039 -16.906991958618164 88.405998229980469
  endloop
 endfacet
 facet normal -0.33860168828594839 -0.84582869312734776 -0.41221683441168239
  outer loop
   vertex -22.721935272216797 -26.361108779907227 64.221366882324219
   vertex -19.512016296386719 -24.397981643676758 57.556541442871094
   vertex -14.483150482177734 -32.904857635498047 70.881027221679688
  endloop
 endfacet
 facet normal 0.1901802876992249 -0.91245877955192722 0.36228501734028046
  outer loop
   vertex 55.15216064453125 -35.401313781738281 50.349212646484375
   vertex 39.498386383056641 -40.304122924804688 46.218288421630859
   vertex 49.207832336425781 -39.966232299804688 41.972366333007813
  endloop
 endfacet
 facet normal 0.58625462829068897 0.79697774402706834 0.14536845026783163
  outer loop
   vertex 63.935928344726563 15.736154556274414 34.695133209228516
   vertex 68.242118835449219 9.4947519302368164 51.547035217285156
   vertex 74.177459716796875 6.9717121124267578 41.442955017089844
  endloop
 endfacet
 facet normal -0.76684631560443561 0.5266197229250088 -0.36690379620588431
  outer loop
   vertex 3.2698211669921875 34.315593719482422 94.082901000976563
   vertex -7.0963082313537598 11.379348754882813 82.828041076660156
   vertex -4.2459316253662109 23.64100456237793 94.469863891601563
  endloop
 endfacet
 facet normal 0.39671673267252172 -0.89283731897960661 -0.21320730722690334
  outer loop
   vertex 62.885677337646484 -34.117687225341797 37.382732391357422
   vertex 42.713348388671875 -41.427631378173828 30.459379196166992
   vertex 55.135765075683594 -33.818977355957031 21.711509704589844
  endloop
 endfacet
 facet normal 0.63908166579454917 -0.70578792991532002 -0.30567633606661726
  outer loop
   vertex 22.616880416870117 2.458946704864502 96.787277221679688
   vertex 13.184770584106445 0.51076304912567139 81.565673828125
   vertex 35.530036926269531 14.819422721862793 95.245407104492188
  endloop
 endfacet
 facet normal 0.81943353436497934 -0.52335651354511503 0.23372343161955342
  outer loop
   vertex -2.5820510387420654 3.2919635772705078 90.299575805664063
   vertex 4.8043050765991211 14.353054046630859 89.171173095703125
   vertex 10.60813045501709 28.953554153442383 101.51660919189453
  endloop
 endfacet
 facet normal -0.022368053409428261 -0.39762638234581499 0.91727472997420623
  outer loop
   vertex 16.881767272949219 -3.6746792793273926 71.507209777832031
   vertex 13.977300643920898 -17.521718978881836 65.433876037597656
   vertex 27.161108016967773 -20.210508346557617 64.589813232421875
  endloop
 endfacet
 facet normal 0.68345893442983296 -0.68132914262080402 0.26205816980898999
  outer loop
   vertex 35.530036926269531 14.819422721862793 95.245407104492188
   vertex 38.195709228515625 23.468212127685547 110.77934265136719
   vertex 22.616880416870117 2.458946704864502 96.787277221679688
  endloop
 endfacet
 facet normal 0.66227622855596679 0.71120809601997381 -0.23573977442368216
  outer loop
   vertex 74.103683471679688 -2.4333400726318359 25.026283264160156
   vertex 70.4715576171875 -5.5913705825805664 5.2948336601257324
   vertex 65.3927001953125 1.6851133108139038 12.97910213470459
  endloop
 endfacet
 facet normal -0.94917906650377903 -0.28425870222422772 -0.1351150987891892
  outer loop
   vertex -20.018257141113281 -24.491413116455078 77.262794494628906
   vertex -23.889854431152344 -7.0286788940429688 67.722076416015625
   vertex -22.557022094726563 -7.8638768196105957 60.116085052490234
  endloop
 endfacet
 facet normal -0.24385105675805371 0.055131616661244866 -0.9682443735763705
  outer loop
   vertex 6.2392578125 4.2788047790527344 21.569591522216797
   vertex 7.3731212615966797 -20.273105621337891 19.886049270629883
   vertex -7.1356124877929688 -15.087037086486816 23.835348129272461
  endloop
 endfacet
 facet normal 0.92163247104809054 -0.21699032129064491 0.32172781784603732
  outer loop
   vertex 71.847755432128906 -25.795000076293945 51.512607574462891
   vertex 77.160118103027344 -20.248390197753906 40.035560607910156
   vertex 76.141288757324219 -2.2162666320800781 55.115955352783203
  endloop
 endfacet
 facet normal -0.59916061066450177 -0.29900809347865831 0.7426982716166769
  outer loop
   vertex -2.1547973155975342 20.623607635498047 100.33632659912109
   vertex 1.8803677558898926 37.066368103027344 110.21144104003906
   vertex -4.4621658325195313 33.056182861328125 103.48020935058594
  endloop
 endfacet
 facet normal 0.30421984351309994 -0.68268759460367612 0.66437032970107224
  outer loop
   vertex 4.8043050765991211 14.353054046630859 89.171173095703125
   vertex 21.240665435791016 36.328994750976563 104.2266845703125
   vertex 10.60813045501709 28.953554153442383 101.51660919189453
  endloop
 endfacet
 facet normal -0.1487854504194876 -0.23548335109419888 -0.96042203280688887
  outer loop
   vertex -4.7117795944213867 -24.598978042602539 55.313018798828125
   vertex -19.512016296386719 -24.397981643676758 57.556541442871094
   vertex -15.295059204101563 -17.339925765991211 55.172718048095703
  endloop
 endfacet
 facet normal 0.30264482197055187 0.87223687660699234 -0.38419909268671004
  outer loop
   vertex 49.960498809814453 21.494258880615234 29.366737365722656
   vertex 56.439388275146484 12.568313598632813 14.206013679504395
   vertex 38.374301910400391 19.974197387695313 16.788997650146484
  endloop
 endfacet
 facet normal -0.10183972019847731 -0.8670648485523087 -0.48767532210975972
  outer loop
   vertex 31.180925369262695 -41.306591033935547 27.114343643188477
   vertex 31.452627182006836 -34.743919372558594 15.389469146728516
   vertex 46.750907897949219 -33.683292388916016 10.309029579162598
  endloop
 endfacet
 facet normal -0.070609611381178092 -0.45508901114683792 0.88764197439845771
  outer loop
   vertex -4.2053709030151367 -8.0403270721435547 93.740364074707031
   vertex -14.117410659790039 -16.906991958618164 88.405998229980469
   vertex 3.6304152011871338 -19.401826858520508 88.538703918457031
  endloop
 endfacet
 facet normal -0.34092094535733181 -0.74231288309546473 -0.57684009275288939
  outer loop
   vertex -10.10804557800293 -20.983579635620117 31.131956100463867
   vertex 7.3731212615966797 -20.273105621337891 19.886049270629883
   vertex -1.4258339405059814 -28.697832107543945 35.927810668945313
  endloop
 endfacet
 facet normal 0.47806214900210681 -0.85514178723386547 0.20047220609839606
  outer loop
   vertex 55.15216064453125 -35.401313781738281 50.349212646484375
   vertex 62.885677337646484 -34.117687225341797 37.382732391357422
   vertex 71.847755432128906 -25.795000076293945 51.512607574462891
  endloop
 endfacet
 facet normal -0.53284475798677777 0.032767380844282691 -0.84557835984527063
  outer loop
   vertex -19.512016296386719 -24.397981643676758 57.556541442871094
   vertex -22.557022094726563 -7.8638768196105957 60.116085052490234
   vertex -15.295059204101563 -17.339925765991211 55.172718048095703
  endloop
 endfacet
 facet normal 0.43560219740427203 -0.88348681082605407 0.17234204569105527
  outer loop
   vertex 55.15216064453125 -35.401313781738281 50.349212646484375
   vertex 49.207832336425781 -39.966232299804688 41.972366333007813
   vertex 62.885677337646484 -34.117687225341797 37.382732391357422
  endloop
 endfacet
 facet normal 0.8003241060034868 0.27509856597470989 -0.53273079913627841
  outer loop
   vertex 84.232940673828125 -10.809188842773438 23.274181365966797
   vertex 74.377952575683594 -16.983009338378906 5.2808651924133301
   vertex 70.4715576171875 -5.5913705825805664 5.2948336601257324
  endloop
 endfacet
 facet normal -0.37371094670983929 0.92690175348444526 -0.034543707049138214
  outer loop
   vertex -7.0963082313537598 11.379348754882813 82.828041076660156
   vertex -5.4625592231750488 11.136493682861328 58.636871337890625
   vertex -17.016324996948242 6.6310520172119141 62.737964630126953
  endloop
 endfacet
 facet normal 0.37024173842566299 0.92837825385942385 0.032169440288417575
  outer loop
   vertex 63.935928344726563 15.736154556274414 34.695133209228516
   vertex 49.960498809814453 21.494258880615234 29.366737365722656
   vertex 36.518943786621094 26.357402801513672 43.721591949462891
  endloop
 endfacet
 facet normal -0.0013056985967370835 0.94870290935624102 0.31616622990157955
  outer loop
   vertex 32.650836944580078 16.574064254760742 59.561927795410156
   vertex 5.5918617248535156 20.200201034545898 48.569427490234375
   vertex 17.373781204223633 15.595675468444824 62.434635162353516
  endloop
 endfacet
 facet normal 0.3672156411039344 -0.72098398926998075 0.58765190388951416
  outer loop
   vertex 7.0519533157348633 -3.029979944229126 92.852958679199219
   vertex -4.2053709030151367 -8.0403270721435547 93.740364074707031
   vertex 10.39754581451416 -3.8880867958068848 89.709541320800781
  endloop
 endfacet
 facet normal -0.12668928287189207 -0.6115966520939109 -0.78096053725711723
  outer loop
   vertex -4.7117795944213867 -24.598978042602539 55.313018798828125
   vertex -5.8181977272033691 -33.934970855712891 62.803836822509766
   vertex -19.512016296386719 -24.397981643676758 57.556541442871094
  endloop
 endfacet
 facet normal -0.99764344627227997 -0.049342541062287693 0.047674602793153366
  outer loop
   vertex 6.4197812080383301 -6.827970027923584 13.851886749267578
   vertex 7.3731212615966797 -20.273105621337891 19.886049270629883
   vertex 6.2392578125 4.2788047790527344 21.569591522216797
  endloop
 endfacet
 facet normal 0.079336268149748118 0.73581816785653009 0.67251571015726519
  outer loop
   vertex 17.373781204223633 15.595675468444824 62.434635162353516
   vertex 11.322731971740723 10.695371627807617 68.510032653808594
   vertex 32.650836944580078 16.574064254760742 59.561927795410156
  endloop
 endfacet
 facet normal 0.1689336896530845 0.98548867660771611 -0.016537133311667982
  outer loop
   vertex 31.86298942565918 17.091348648071289 15.07627010345459
   vertex 54.831985473632813 12.990793228149414 5.3518710136413574
   vertex 22.39579963684082 18.550373077392578 5.311866283416748
  endloop
 endfacet
 facet normal 0.51867147090645793 0.85223738720149034 0.068347210065286518
  outer loop
   vertex 6.3861947059631348 8.4257755279541016 90.643585205078125
   vertex 9.6576147079467773 7.2935247421264648 79.935821533203125
   vertex 4.8045716285705566 10.327667236328125 78.9310302734375
  endloop
 endfacet
 facet normal -0.86980718664436396 0.47973992364319606 0.11526085078914355
  outer loop
   vertex -19.341691970825195 -1.290739893913269 78.16192626953125
   vertex -17.016324996948242 6.6310520172119141 62.737964630126953
   vertex -23.889854431152344 -7.0286788940429688 67.722076416015625
  endloop
 endfacet
 facet normal 0.55682162050850648 -0.78627448997214267 -0.26780983804432529
  outer loop
   vertex 46.750907897949219 -33.683292388916016 10.309029579162598
   vertex 46.470149993896484 -32.180118560791016 5.3120536804199219
   vertex 55.259841918945313 -29.120697021484375 14.605010986328125
  endloop
 endfacet
 facet normal -0.58765739745909851 -0.78793953920516024 -0.18387513635279523
  outer loop
   vertex -15.619653701782227 -19.234952926635742 41.253635406494141
   vertex -10.10804557800293 -20.983579635620117 31.131956100463867
   vertex -1.6933287382125854 -30.414913177490234 44.653903961181641
  endloop
 endfacet
 facet normal 0.17885936409080663 -0.93345443602390321 0.31092144304362329
  outer loop
   vertex -5.8181977272033691 -33.934970855712891 62.803836822509766
   vertex -6.7720952033996582 -27.367221832275391 83.070396423339844
   vertex -14.483150482177734 -32.904857635498047 70.881027221679688
  endloop
 endfacet
 facet normal 0.24281609771769794 -0.49061286445135532 0.83686280830491278
  outer loop
   vertex -2.1547973155975342 20.623607635498047 100.33632659912109
   vertex -2.5820510387420654 3.2919635772705078 90.299575805664063
   vertex 10.60813045501709 28.953554153442383 101.51660919189453
  endloop
 endfacet
 facet normal 0.0025456822057064923 0.021082430024494586 -0.99977449989803702
  outer loop
   vertex 12.697721481323242 -28.181570053100586 5.3103785514831543
   vertex -6.452786922454834 -22.764629364013672 5.3758444786071777
   vertex 46.470149993896484 -32.180118560791016 5.3120536804199219
  endloop
 endfacet
 facet normal 0.11186173055709588 0.88735211743237774 0.44731775386747974
  outer loop
   vertex 57.814292907714844 13.204912185668945 53.833423614501953
   vertex 56.676582336425781 18.933500289916992 42.754032135009766
   vertex 46.159988403320313 16.62591552734375 49.961536407470703
  endloop
 endfacet
 facet normal 0.35582316957958271 -0.89400543836104407 -0.27229423088126015
  outer loop
   vertex 46.750907897949219 -33.683292388916016 10.309029579162598
   vertex 55.135765075683594 -33.818977355957031 21.711509704589844
   vertex 42.713348388671875 -41.427631378173828 30.459379196166992
  endloop
 endfacet
 facet normal 0.28187398720304968 -0.54387435984396204 0.79040985320438373
  outer loop
   vertex -2.1547973155975342 20.623607635498047 100.33632659912109
   vertex 10.60813045501709 28.953554153442383 101.51660919189453
   vertex 1.8803677558898926 37.066368103027344 110.21144104003906
  endloop
 endfacet
 facet normal -0.72130675290337054 0.5902274012374471 0.36241989879763203
  outer loop
   vertex 30.041061401367188 30.601150512695313 103.61256408691406
   vertex 23.36201286315918 20.396402359008789 106.93875885009766
   vertex 31.117164611816406 26.499443054199219 112.43421173095703
  endloop
 endfacet
 facet normal 0.074407093542067357 -0.96456293004022731 -0.25314410604008453
  outer loop
   vertex 55.259841918945313 -29.120697021484375 14.605010986328125
   vertex 67.265983581542969 -25.761890411376953 5.3358311653137207
   vertex 64.277557373046875 -29.077144622802734 17.089654922485352
  endloop
 endfacet
 facet normal 0.8855116845944403 0.39393785214761534 0.24633721824369106
  outer loop
   vertex 9.6576147079467773 7.2935247421264648 79.935821533203125
   vertex 16.881767272949219 -3.6746792793273926 71.507209777832031
   vertex 11.322731971740723 10.695371627807617 68.510032653808594
  endloop
 endfacet
 facet normal 0.64335891338742579 -0.35749508499616822 -0.67696866453960269
  outer loop
   vertex 35.530036926269531 14.819422721862793 95.245407104492188
   vertex 13.184770584106445 0.51076304912567139 81.565673828125
   vertex 36.363208770751953 19.849845886230469 93.3807373046875
  endloop
 endfacet
 facet normal 0.98037428172103713 -0.1862903457305311 -0.064514919418376976
  outer loop
   vertex 38.195709228515625 23.468212127685547 110.77934265136719
   vertex 35.530036926269531 14.819422721862793 95.245407104492188
   vertex 36.363208770751953 19.849845886230469 93.3807373046875
  endloop
 endfacet
endsolid
